<svg width="101" height="32" viewBox="0 0 101 32" fill="none" xmlns="http://www.w3.org/2000/svg">
<path d="M7.88404 0.115948C6.7548 -0.319962 5.54293 0.527447 5.54293 1.75148V3.96939L21.7655 10.1977C22.8947 10.6336 24.1066 9.78617 24.1066 8.56213V6.34422L7.88404 0.115948ZM0 6.7069V8.94225V17.5733C0 18.7938 1.20498 19.6412 2.33423 19.2123L4.71321 18.3126V10.7173L21.7792 17.1339C22.9119 17.5593 24.11 16.7119 24.11 15.4948V13.2595L2.32734 5.06788C1.20154 4.64243 0 5.48635 0 6.7069Z" fill="#00AEEF"/>
<path d="M0 15.411V17.6464C0 18.8669 1.20154 19.7108 2.33078 19.2889L22.9808 11.5227C23.659 11.2681 24.1066 10.6125 24.1066 9.88019V6.34758L0 15.411ZM5.54293 25.137L22.9911 18.438C23.6624 18.1799 24.1066 17.5278 24.1066 16.8024V13.2559L5.54293 20.3839V25.137ZM5.54293 32L9.13034 30.6434C9.80513 30.3889 10.2527 29.7333 10.2527 29.0044V25.4753L5.54293 27.2573V32Z" fill="#005B97"/>
<path d="M48.3335 22.2601L53.0709 16.8373C55.7149 14.0161 56.882 12.3946 56.882 9.93603V9.85233C56.882 6.83933 54.6373 4.72952 51.556 4.72952C49.1839 4.72952 47.5692 5.71642 46.2575 7.3938C45.1352 5.86637 43.1969 5.00502 40.7353 5.00502H35.0305V24.1781H37.0583V17.4127H40.4908C44.3571 17.3848 47.3868 15.1948 47.3868 11.1357V11.0799C47.3868 10.4417 47.311 9.84187 47.163 9.29437C48.4196 7.52632 49.6521 6.61614 51.3667 6.61614C53.2602 6.61614 54.7682 7.93084 54.7682 10.0406C54.7682 11.8157 53.904 13.2176 51.6318 15.6831L45.5208 22.5844V24.1746H57.0129V22.2566H48.3335V22.2601ZM45.3314 11.1949C45.3314 13.8243 43.493 15.5505 40.5459 15.5505H37.0583V6.89512H40.6285C43.4895 6.89512 45.328 8.37373 45.328 11.167V11.1949H45.3314Z" fill="#00AEEF"/>
<path d="M70.4021 5.00502L64.8041 21.3324L59.2337 5.00502H57.0165L63.8573 24.3176H65.7234L72.5367 5.00502H70.4021ZM76.854 9.63264C73.5557 9.63264 71.0391 12.6735 71.0391 17.0291V17.1652C71.0391 21.6847 73.8518 24.478 77.2878 24.478C79.3982 24.478 80.858 23.655 82.1283 22.3403L81.0198 21.0814C80.0454 22.0683 78.9093 22.7239 77.3704 22.7239C75.1532 22.7239 73.2321 20.9698 73.0152 17.8208H82.4795C82.5071 17.5732 82.5071 17.1896 82.5071 16.9978C82.5071 12.7014 80.3966 9.63264 76.854 9.63264ZM73.0152 16.2898C73.2046 13.3047 74.7711 11.3588 76.854 11.3588C79.1538 11.3588 80.4242 13.5767 80.5584 16.2898H73.0152ZM88.2944 16.0701C86.3733 15.2472 85.158 14.6473 85.158 13.4407V13.3849C85.158 12.262 86.1048 11.3867 87.5921 11.3867C88.8349 11.3867 90.0537 11.9342 91.1347 12.7293L92.0815 11.2228C90.8903 10.3196 89.2412 9.68843 87.6472 9.68843C85.1305 9.68843 83.2645 11.2507 83.2645 13.5767V13.6325C83.2645 15.8505 85.0479 16.7537 87.2926 17.7406C89.1861 18.5357 90.3498 19.1913 90.3498 20.4537V20.4816C90.3498 21.8242 89.2687 22.6995 87.7264 22.6995C86.3217 22.6995 84.9411 22.0962 83.6156 20.9733L82.5862 22.424C84.0735 23.7387 85.9395 24.4222 87.6713 24.4222C90.2121 24.4222 92.2399 22.8599 92.2399 20.3142V20.2584C92.2433 18.0963 90.6183 17.1094 88.2944 16.0701ZM100.571 11.6587V9.90464H96.8946V5.74432H94.9459V9.90813H93.2417V11.6622H94.9459V20.8652C94.9459 23.4109 96.4608 24.3978 98.461 24.3978C99.2736 24.3978 99.9483 24.206 100.571 23.9061V22.2078C100.003 22.4554 99.4629 22.5914 98.9224 22.5914C97.7071 22.5914 96.8946 22.0439 96.8946 20.5373V11.6587H100.571Z" fill="#3AB449"/>
</svg>
