<svg width="210" height="40" viewBox="0 0 210 40" fill="none" xmlns="http://www.w3.org/2000/svg">
<g clip-path="url(#clip0_400_7963)">
<path d="M0 39.612V23.6403H2.0087V39.612H0Z" fill="#0066A1"/>
<path d="M5.38696 39.612V27.326H6.41414L14.2435 35.9717V27.326H16.1381V39.612H15.1109L7.28153 31.0118V39.612H5.38696Z" fill="#0066A1"/>
<path d="M18.1467 38.0422L19.0826 36.4268C19.9272 36.9956 20.863 37.4506 21.8674 37.7692C22.8717 38.0877 23.8304 38.2242 24.7435 38.2242C25.8391 38.2242 26.7293 38.0194 27.3913 37.5644C28.0761 37.1094 28.4185 36.5406 28.4185 35.858C28.4185 35.1527 28.0989 34.6294 27.4826 34.2881C26.8663 33.9469 25.9076 33.7648 24.5609 33.7193C22.3239 33.6966 20.7717 33.4463 19.95 32.9458C19.1054 32.468 18.6946 31.6489 18.6946 30.5113C18.6946 29.4648 19.1511 28.6229 20.0641 27.9631C20.9772 27.3261 22.2326 27.0076 23.7848 27.0076C24.8348 27.0076 25.8619 27.1441 26.8663 27.4626C27.8478 27.7584 28.8065 28.1907 29.7424 28.7822L28.7609 30.3748C28.0076 29.8515 27.163 29.442 26.2956 29.169C25.4054 28.896 24.5609 28.7367 23.7391 28.7367C22.8033 28.7367 22.05 28.9187 21.4793 29.2372C20.9315 29.5558 20.6348 29.9881 20.6348 30.5113C20.6348 31.0574 20.9315 31.4442 21.5022 31.6717C22.0728 31.8992 23.0543 32.013 24.4696 32.013C26.4326 32.013 27.9163 32.3542 28.9206 33.014C29.925 33.6738 30.4272 34.6522 30.4272 35.9718C30.4272 37.1094 29.925 38.0877 28.8978 38.8612C27.8935 39.6121 26.5696 39.9988 24.9489 39.9988C23.7619 39.9988 22.575 39.8396 21.388 39.4983C20.2011 39.157 19.1283 38.6792 18.1467 38.0422Z" fill="#0066A1"/>
<path d="M32.7554 27.3716H34.6728V35.2209C34.6728 36.404 34.9467 37.2003 35.5173 37.6099C36.0652 38.0194 37.1836 38.2242 38.8271 38.2242C40.4934 38.2242 41.6119 38.0194 42.1597 37.6099C42.7304 37.2003 43.0043 36.404 43.0043 35.2209V27.3716H44.9217V35.7215C44.9217 37.2459 44.4423 38.3152 43.5065 38.9977C42.5249 39.6575 40.9728 39.9988 38.8043 39.9988C36.6586 39.9988 35.1065 39.6803 34.1706 39.0205C33.2119 38.3379 32.7554 37.2459 32.7554 35.7215V27.3716Z" fill="#0066A1"/>
<path d="M49.9892 32.468H56.5403C57.2022 32.468 57.7044 32.3087 58.0468 32.0357C58.412 31.7399 58.5718 31.3304 58.5718 30.7843C58.5718 30.2383 58.412 29.8288 58.0468 29.5558C57.7044 29.26 57.2022 29.1235 56.5403 29.1235H49.9892V32.468ZM49.9892 34.2654V39.612H48.049V27.3716H56.5403C57.7957 27.3716 58.7772 27.6674 59.4848 28.2589C60.2153 28.8732 60.5576 29.715 60.5576 30.7843C60.5576 31.6489 60.2837 32.4225 59.7131 33.0595C59.1424 33.6966 58.412 34.0834 57.5218 34.2199L60.9457 39.612H58.8457L55.3533 34.2654H49.9892Z" fill="#0066A1"/>
<path d="M64.5065 34.8796H69.3228L66.9261 30.17L64.5065 34.8796ZM60.0326 39.612L66.3098 27.326H67.5195L73.8424 39.612H71.7652L70.1674 36.495H63.6619L62.0641 39.612H60.0326Z" fill="#0066A1"/>
<path d="M74.5729 39.612V27.326H75.5772L83.4066 35.9717V27.326H85.3011V39.612H84.2968L76.4674 31.0118V39.612H74.5729Z" fill="#0066A1"/>
<path d="M101.439 36.6088C100.732 37.7237 99.8185 38.5427 98.6772 39.1343C97.5359 39.7031 96.2348 39.9988 94.7739 39.9988C92.6055 39.9988 90.825 39.3845 89.4326 38.1787C88.0174 36.9501 87.3326 35.403 87.3326 33.5146C87.3326 31.6489 88.0174 30.0791 89.4326 28.8505C90.825 27.6219 92.6055 27.0076 94.7739 27.0076C96.1207 27.0076 97.3533 27.2578 98.4489 27.7584C99.5446 28.2589 100.435 28.987 101.097 29.897L99.5674 30.9664C99.0653 30.2611 98.4033 29.715 97.5587 29.351C96.737 28.9642 95.8011 28.7822 94.7739 28.7822C93.1989 28.7822 91.8979 29.2145 90.8479 30.1246C89.8207 31.0119 89.2957 32.1495 89.2957 33.4918C89.2957 34.8342 89.8207 35.9718 90.8707 36.8591C91.8979 37.7692 93.1989 38.2014 94.7739 38.2014C95.8696 38.2014 96.8511 37.9967 97.6729 37.5644C98.5174 37.1321 99.2479 36.4723 99.887 35.5622L101.439 36.6088Z" fill="#0066A1"/>
<path d="M103.539 39.612V27.326H115.089V29.1234H105.457V32.1949H111.779V33.9696H105.457V37.8601H115.637V39.612H103.539Z" fill="#0066A1"/>
<path d="M119.426 30.8071H126.456C127.461 30.8071 128.237 30.5795 128.739 30.1473C129.264 29.715 129.515 29.0552 129.515 28.2134C129.515 27.3715 129.264 26.7117 128.739 26.2567C128.237 25.8017 127.506 25.5514 126.571 25.5514H119.426V30.8071ZM117.44 39.612V23.7313H126.593C128.146 23.7313 129.355 24.118 130.246 24.8916C131.136 25.6424 131.592 26.7117 131.592 28.0313C131.592 29.4192 131.159 30.534 130.291 31.3759C129.424 32.2404 128.283 32.6727 126.867 32.6727H119.426V39.612H117.44Z" fill="#0066A1"/>
<path d="M132.825 34.8796H137.641L135.245 30.17L132.825 34.8796ZM128.351 39.612L134.628 27.326H135.838L142.161 39.612H140.084L138.486 36.495H131.98L130.383 39.612H128.351Z" fill="#0066A1"/>
<path d="M144.809 32.468H151.36C152.022 32.468 152.547 32.3087 152.889 32.0357C153.232 31.7399 153.414 31.3304 153.414 30.7843C153.414 30.2383 153.232 29.8288 152.889 29.5558C152.547 29.26 152.022 29.1235 151.36 29.1235H144.809V32.468ZM144.809 34.2654V39.612H142.891V27.3716H151.36C152.638 27.3716 153.62 27.6674 154.327 28.2589C155.035 28.8732 155.4 29.715 155.4 30.7843C155.4 31.6489 155.126 32.4225 154.555 33.0595C153.985 33.6966 153.254 34.0834 152.341 34.2199L155.788 39.612H153.688L150.196 34.2654H144.809Z" fill="#0066A1"/>
<path d="M159.326 34.8796H164.165L161.768 30.17L159.326 34.8796ZM154.875 39.612L161.129 27.326H162.362L168.685 39.612H166.608L165.01 36.495H158.504L156.907 39.612H154.875Z" fill="#0066A1"/>
<path d="M168.32 38.0422L169.255 36.4268C170.1 36.9956 171.013 37.4506 172.017 37.7692C173.022 38.0877 173.98 38.2242 174.893 38.2242C175.989 38.2242 176.879 38.0194 177.564 37.5644C178.226 37.1094 178.568 36.5406 178.568 35.858C178.568 35.1527 178.249 34.6294 177.655 34.2881C177.039 33.9469 176.058 33.7648 174.734 33.7193C172.474 33.6966 170.945 33.4463 170.1 32.9458C169.255 32.468 168.845 31.6489 168.845 30.5113C168.845 29.4648 169.301 28.6229 170.214 27.9631C171.15 27.3261 172.383 27.0076 173.935 27.0076C174.985 27.0076 176.012 27.1441 177.016 27.4626C178.021 27.7584 178.979 28.1907 179.892 28.7822L178.934 30.3748C178.158 29.8515 177.336 29.442 176.446 29.169C175.555 28.896 174.711 28.7367 173.912 28.7367C172.976 28.7367 172.223 28.9187 171.652 29.2372C171.082 29.5558 170.785 29.9881 170.785 30.5113C170.785 31.0574 171.082 31.4442 171.652 31.6717C172.223 31.8992 173.227 32.013 174.642 32.013C176.605 32.013 178.066 32.3542 179.071 33.014C180.075 33.6738 180.577 34.6522 180.577 35.9718C180.577 37.1094 180.075 38.0877 179.048 38.8612C178.043 39.6121 176.72 39.9988 175.122 39.9988C173.912 39.9988 172.725 39.8396 171.538 39.4983C170.374 39.157 169.301 38.6792 168.32 38.0422Z" fill="#0066A1"/>
<path d="M189.342 38.2014C191.009 38.2014 192.355 37.7692 193.383 36.8818C194.433 35.9945 194.935 34.8569 194.935 33.4918C194.935 32.1267 194.41 31.0119 193.383 30.1018C192.333 29.2145 190.986 28.7822 189.342 28.7822C187.722 28.7822 186.375 29.2145 185.348 30.1018C184.321 30.9891 183.796 32.1267 183.796 33.4918C183.796 34.8569 184.321 35.9945 185.348 36.8818C186.375 37.7692 187.722 38.2014 189.342 38.2014ZM189.342 39.9988C187.151 39.9988 185.348 39.3845 183.933 38.1559C182.517 36.9046 181.81 35.3575 181.81 33.4918C181.81 31.6034 182.517 30.0563 183.933 28.8277C185.348 27.6219 187.151 27.0076 189.342 27.0076C191.579 27.0076 193.405 27.6219 194.798 28.8277C196.213 30.0563 196.921 31.6034 196.921 33.4918C196.921 35.3802 196.213 36.9273 194.798 38.1559C193.383 39.3845 191.579 39.9988 189.342 39.9988Z" fill="#0066A1"/>
<path d="M198.929 39.612V27.326H200.847V37.8601H210V39.612H198.929Z" fill="#0066A1"/>
<path fill-rule="evenodd" clip-rule="evenodd" d="M50.7196 23.572L56.9511 23.5948C58.0924 23.5948 57.7957 23.6175 59.2794 21.7064C62.7033 17.3153 68.25 12.8332 73.2946 10.3077C73.9794 9.96647 75.6229 9.0564 76.262 8.98815L78.225 8.12358C78.5903 8.03257 79.2979 7.71405 79.6631 7.60029C86.625 5.2341 94.2033 4.96108 101.371 6.37169C107.077 7.48653 113.857 10.558 118.399 14.1528C120.294 15.6544 122.211 17.2925 123.74 18.9534C123.969 19.2037 124.288 19.5677 124.539 19.8635C124.813 20.1593 125.064 20.5916 125.429 20.7508C125.247 20.1138 122.941 17.6566 122.394 17.0423C119.38 13.675 115.112 10.467 110.935 8.16908C96.7142 0.319721 79.7772 0.82026 65.8761 9.23842C61.3794 11.9686 57.1337 15.3359 53.824 19.3402C53.2076 20.1138 50.7881 22.9577 50.7196 23.572Z" fill="#0066A1"/>
<path fill-rule="evenodd" clip-rule="evenodd" d="M99.8185 2.6859C100.207 3.02718 101.804 2.52664 102.489 2.36738L105.183 1.82133C109.337 1.20704 114.998 1.29804 119.084 1.93509C120.453 2.16261 122.736 2.5949 124.06 3.04993C124.585 3.23194 125.27 3.27745 125.817 3.45946C127.895 4.14202 129.903 4.93833 131.798 5.75739L133.875 6.73572C134.08 6.84948 134.263 7.03149 134.491 7.14525C137.162 8.60136 137.482 8.82888 140.129 10.7173L141.933 12.1051C142.868 12.8332 142.732 12.6284 143.599 13.493C144.923 14.8126 145.105 14.7671 146.68 16.5645C146.886 16.7693 147.023 16.883 147.205 17.0878L151.702 23.0032C152.045 23.5948 152.204 23.5948 153.072 23.572H157.911C157.888 23.39 157.82 23.0715 157.728 22.8667C157.591 22.6392 157.66 22.7985 157.5 22.571C157.477 22.5482 157.432 22.4799 157.409 22.4572C157.317 22.3434 157.363 22.4117 157.272 22.2752L156.085 20.5005C155.879 20.2503 155.834 20.2503 155.628 19.909L153.779 17.6338C153.209 16.883 152.889 16.6327 152.273 15.9729C152.25 15.9502 152.227 15.9274 152.227 15.9047L150.743 14.4258C150.584 14.2666 150.447 14.0618 150.287 13.9253C150.082 13.7205 149.945 13.6295 149.739 13.4247L147.662 11.4681C145.79 9.78446 143.667 8.55586 141.59 7.168L136.272 4.32403C134.925 3.75524 131.547 2.41288 130.223 2.09436L123.489 0.569987C118.422 0.0694482 118.65 -0.0443106 113.537 0.0239447C110.707 0.0466965 102.238 1.45731 99.8185 2.6859Z" fill="#3AB449"/>
</g>
<defs>
<clipPath id="clip0_400_7963">
<rect width="210" height="40" fill="white"/>
</clipPath>
</defs>
</svg>
